<svg xmlns="http://www.w3.org/2000/svg" xmlns:xlink="http://www.w3.org/1999/xlink" width="324.226" height="123.153" viewBox="0 0 324.226 123.153">
  <defs>
    <clipPath id="clip-path">
      <rect id="Rectangle_2133" data-name="Rectangle 2133" width="324.226" height="123.153" fill="none"/>
    </clipPath>
  </defs>
  <g id="Group_624" data-name="Group 624" clip-path="url(#clip-path)">
    <path id="Path_787" data-name="Path 787" d="M68.289,55.486c0,9.038-4.439,14.2-12.529,14.2a11.737,11.737,0,0,1-9.436-3.968l-2.936,2.936A16.622,16.622,0,0,0,55.76,73.486c10.231,0,16.811-6.821,16.811-17.128V16.549H68.289Z" transform="translate(114.868 43.812)" fill="#351a6e"/>
    <rect id="Rectangle_2130" data-name="Rectangle 2130" width="4.282" height="56.459" transform="translate(202.506 60.365)" fill="#351a6e"/>
    <path id="Path_788" data-name="Path 788" d="M84.99,60.085,65.323,16.549H61.041V73.008h4.282V26.46L82.769,65.082h4.286L104.18,26.46V73.008h4.282V16.549H104.18Z" transform="translate(161.604 43.813)" fill="#351a6e"/>
    <path id="Path_789" data-name="Path 789" d="M103.053,46.922c7.93-1.35,13-6.821,13-15.224,0-9.837-6.978-15.148-16.176-15.148H78.389V73.009h4.282V47H98.213L111.7,73.009h4.993ZM82.671,43.195V20.354H99.325c7.215,0,12.449,3.647,12.449,11.42s-5.234,11.42-12.449,11.42Z" transform="translate(207.531 43.815)" fill="#351a6e"/>
    <path id="Path_790" data-name="Path 790" d="M57.37,44.8C54.8,42.488,51.684,41.233,46.6,40.46l-6.171-.912a10.939,10.939,0,0,1-5.468-2.218,5.27,5.27,0,0,1-1.652-4.125c0-4.472,3.33-7.244,8.692-7.244,4.8,0,8.181,1.189,10.975,3.855l.85.813,7-6.9-.926-.864c-4.877-4.556-10.162-6.5-17.672-6.5-11.759,0-19.357,6.73-19.357,17.143,0,4.745,1.463,8.528,4.351,11.256,2.582,2.415,6.368,4.027,10.946,4.658l6.4.916c3.228.463,4.235.981,5.307,1.988a6.28,6.28,0,0,1,1.729,4.734c0,6.171-6.259,7.091-9.99,7.091-5.81,0-9.582-1.393-13.01-4.826l-.85-.854-7.215,7.113.853.864c5.2,5.278,11.2,7.528,20.068,7.528,12.4,0,20.728-6.89,20.728-17.147,0-5.117-1.671-9.283-4.822-12.029" transform="translate(54.384 43.325)" fill="#351a6e"/>
    <path id="Path_791" data-name="Path 791" d="M75.1,34.233c0-10.49-7.707-17.814-18.741-17.814H34.4V73.553H45.142V52.047H56.358c11.034,0,18.741-7.328,18.741-17.814M55.9,42.072H45.142V26.318H55.9c5.292,0,8.451,2.958,8.451,7.915,0,4.906-3.159,7.838-8.451,7.838" transform="translate(91.064 43.468)" fill="#351a6e"/>
    <path id="Path_792" data-name="Path 792" d="M30.457,15.988A3.085,3.085,0,0,0,32.288,13.1c0-2.291-1.583-3.72-4.1-3.72H22.9V22.976h5.5c2.407,0,4.107-1.339,4.107-3.841a3.228,3.228,0,0,0-2.043-3.148m-5.5-4.756h3.057c1.317,0,2.214.689,2.214,1.948s-.9,1.948-2.214,1.948H24.957ZM28.2,21.123H24.957V16.98H28.2a2.078,2.078,0,1,1,0,4.144" transform="translate(60.616 24.838)" fill="#351a6e"/>
    <path id="Path_793" data-name="Path 793" d="M30.963,13.182a3.343,3.343,0,0,0-2.5,1.087V9.381H26.513v13.6h1.948V17.041a1.892,1.892,0,0,1,1.966-2.123,1.867,1.867,0,0,1,1.948,2.123v5.938h1.948V16.734c0-2.1-1.2-3.553-3.359-3.553" transform="translate(70.192 24.835)" fill="#351a6e"/>
    <path id="Path_794" data-name="Path 794" d="M33.346,10.423a3.971,3.971,0,0,0-3.476,1.393l1.28,1.2a2.263,2.263,0,0,1,2.119-.937c1.51,0,2.119.595,2.119,1.813v.689H32.832c-2.218,0-3.345,1.164-3.345,2.787a2.982,2.982,0,0,0,.766,2.083,3.42,3.42,0,0,0,2.6.875,3.18,3.18,0,0,0,2.575-.988v.875h1.911V13.742c0-2.192-1.335-3.319-3.99-3.319m2.043,6.3a1.942,1.942,0,0,1-.419,1.43,2.3,2.3,0,0,1-1.813.558c-1.226,0-1.776-.5-1.776-1.379s.591-1.393,1.736-1.393h2.272Z" transform="translate(78.065 27.594)" fill="#351a6e"/>
    <path id="Path_795" data-name="Path 795" d="M34.581,11.587V10.54H32.67v9.68h1.948V14.337a1.994,1.994,0,0,1,1.93-2.178A1.806,1.806,0,0,1,38,12.808l1.47-1.47a3,3,0,0,0-2.309-.916,3.218,3.218,0,0,0-2.579,1.164" transform="translate(86.492 27.594)" fill="#351a6e"/>
    <path id="Path_796" data-name="Path 796" d="M38.782,10.423a3.971,3.971,0,0,0-3.476,1.393l1.28,1.2a2.263,2.263,0,0,1,2.119-.937c1.51,0,2.119.595,2.119,1.813v.689H38.268c-2.218,0-3.341,1.164-3.341,2.787a2.98,2.98,0,0,0,.762,2.083,3.42,3.42,0,0,0,2.6.875,3.18,3.18,0,0,0,2.575-.988v.875h1.911V13.742c0-2.192-1.339-3.319-3.99-3.319m2.043,6.3a1.942,1.942,0,0,1-.419,1.43,2.308,2.308,0,0,1-1.816.558c-1.222,0-1.773-.5-1.773-1.379s.591-1.393,1.736-1.393h2.272Z" transform="translate(92.468 27.594)" fill="#351a6e"/>
    <path id="Path_797" data-name="Path 797" d="M40.926,9.695H38.978v2.94H37.869v1.492h1.109v5.325a2.518,2.518,0,0,0,2.652,2.692H42.8v-1.66h-.8a.985.985,0,0,1-1.069-1.127v-5.23H42.8V12.635H40.926Z" transform="translate(100.256 25.666)" fill="#351a6e"/>
    <path id="Path_798" data-name="Path 798" d="M41.289,9.245a1.26,1.26,0,1,0,1.262,1.262,1.271,1.271,0,0,0-1.262-1.262" transform="translate(105.98 24.475)" fill="#351a6e"/>
    <rect id="Rectangle_2131" data-name="Rectangle 2131" width="1.948" height="9.68" transform="translate(146.299 38.13)" fill="#351a6e"/>
    <path id="Path_799" data-name="Path 799" d="M45.692,17.271l-2.309-6.817H41.319L44.7,19.678l-.536,1.506c-.284.784-.573,1.032-1.393,1.032h-.5v1.754h.784a2.676,2.676,0,0,0,1.984-.708,3.176,3.176,0,0,0,.708-1.2l4.275-11.61H47.946Z" transform="translate(109.39 27.676)" fill="#351a6e"/>
    <path id="Path_800" data-name="Path 800" d="M47.968,10.423a3.975,3.975,0,0,0-3.476,1.393l1.28,1.2a2.263,2.263,0,0,1,2.119-.937c1.506,0,2.119.595,2.119,1.813v.689H47.45c-2.214,0-3.341,1.164-3.341,2.787a2.982,2.982,0,0,0,.766,2.083,3.416,3.416,0,0,0,2.593.875,3.188,3.188,0,0,0,2.579-.988v.875h1.911V13.742c0-2.192-1.339-3.319-3.99-3.319m2.043,6.3a1.942,1.942,0,0,1-.419,1.43,2.3,2.3,0,0,1-1.816.558c-1.218,0-1.773-.5-1.773-1.379s.591-1.393,1.736-1.393h2.272Z" transform="translate(116.776 27.594)" fill="#351a6e"/>
    <path id="Path_801" data-name="Path 801" d="M53.631,19.273,50.5,9.381H48.36l4.468,13.6h1.6l4.508-13.6H56.764Z" transform="translate(128.032 24.834)" fill="#351a6e"/>
    <path id="Path_802" data-name="Path 802" d="M53.1,9.245a1.26,1.26,0,1,0,1.262,1.262A1.269,1.269,0,0,0,53.1,9.245" transform="translate(137.252 24.475)" fill="#351a6e"/>
    <rect id="Rectangle_2132" data-name="Rectangle 2132" width="1.948" height="9.68" transform="translate(189.379 38.13)" fill="#351a6e"/>
    <path id="Path_803" data-name="Path 803" d="M59.364,14.269a2.99,2.99,0,0,0-2.539-1.087,3.316,3.316,0,0,0-2.353.857c-.97.974-1.087,2.615-1.087,4.089s.117,3.13,1.087,4.1a3.369,3.369,0,0,0,2.371.857A2.984,2.984,0,0,0,59.4,21.943v1.032h1.908V9.381H59.364Zm-2.006,7.083c-1.754,0-2.024-1.506-2.024-3.224s.27-3.21,2.024-3.21,2.006,1.488,2.006,3.21-.248,3.224-2.006,3.224" transform="translate(141.337 24.835)" fill="#351a6e"/>
    <path id="Path_804" data-name="Path 804" d="M60.608,17.271,58.3,10.454H56.235l3.381,9.224-.536,1.506c-.285.784-.573,1.032-1.393,1.032h-.5v1.754h.784a2.676,2.676,0,0,0,1.984-.708,3.13,3.13,0,0,0,.708-1.2l4.275-11.61H62.862Z" transform="translate(148.879 27.676)" fill="#351a6e"/>
    <path id="Path_805" data-name="Path 805" d="M62.88,10.423a3.964,3.964,0,0,0-3.472,1.393l1.28,1.2a2.256,2.256,0,0,1,2.116-.937c1.51,0,2.123.595,2.123,1.813v.689H62.366c-2.214,0-3.341,1.164-3.341,2.787a2.98,2.98,0,0,0,.762,2.083,3.42,3.42,0,0,0,2.6.875,3.193,3.193,0,0,0,2.579-.988v.875h1.908V13.742c0-2.192-1.335-3.319-3.99-3.319m2.046,6.3a1.926,1.926,0,0,1-.423,1.43,2.3,2.3,0,0,1-1.813.558c-1.222,0-1.776-.5-1.776-1.379s.591-1.393,1.736-1.393h2.276Z" transform="translate(156.266 27.594)" fill="#351a6e"/>
    <path id="Path_806" data-name="Path 806" d="M71.3,15.988A3.082,3.082,0,0,0,73.133,13.1c0-2.291-1.587-3.72-4.107-3.72H63.737V22.976h5.5c2.407,0,4.107-1.339,4.107-3.841A3.23,3.23,0,0,0,71.3,15.988m-5.5-4.756h3.053c1.32,0,2.218.689,2.218,1.948s-.9,1.948-2.218,1.948H65.8Zm3.246,9.892H65.8V16.98h3.246a2.078,2.078,0,1,1,0,4.144" transform="translate(168.741 24.838)" fill="#351a6e"/>
    <path id="Path_807" data-name="Path 807" d="M71.8,13.182a3.33,3.33,0,0,0-2.5,1.087V9.381H67.354v13.6h1.951V17.041a1.89,1.89,0,0,1,1.966-2.123,1.868,1.868,0,0,1,1.948,2.123v5.938h1.948V16.734A3.213,3.213,0,0,0,71.8,13.182" transform="translate(178.316 24.835)" fill="#351a6e"/>
    <path id="Path_808" data-name="Path 808" d="M74.187,10.423a3.971,3.971,0,0,0-3.476,1.393l1.28,1.2a2.259,2.259,0,0,1,2.119-.937c1.506,0,2.119.595,2.119,1.813v.689H73.669c-2.214,0-3.341,1.164-3.341,2.787a2.966,2.966,0,0,0,.766,2.083,3.416,3.416,0,0,0,2.593.875,3.193,3.193,0,0,0,2.579-.988v.875h1.911V13.742c0-2.192-1.339-3.319-3.99-3.319m2.043,6.3a1.943,1.943,0,0,1-.419,1.43,2.313,2.313,0,0,1-1.816.558c-1.222,0-1.776-.5-1.776-1.379s.595-1.393,1.74-1.393H76.23Z" transform="translate(186.19 27.594)" fill="#351a6e"/>
    <path id="Path_809" data-name="Path 809" d="M77.484,17.271l-2.291-6.817H73.129l3.553,9.68h1.587l3.549-9.68H79.757Z" transform="translate(193.606 27.677)" fill="#351a6e"/>
    <path id="Path_810" data-name="Path 810" d="M79.8,10.423a3.971,3.971,0,0,0-3.476,1.393l1.28,1.2a2.26,2.26,0,0,1,2.116-.937c1.514,0,2.123.595,2.123,1.813v.689H79.277c-2.214,0-3.341,1.164-3.341,2.787a2.966,2.966,0,0,0,.766,2.083,3.416,3.416,0,0,0,2.593.875,3.193,3.193,0,0,0,2.579-.988v.875h1.911V13.742c0-2.192-1.339-3.319-3.99-3.319m2.043,6.3a1.943,1.943,0,0,1-.419,1.43,2.308,2.308,0,0,1-1.816.558c-1.222,0-1.776-.5-1.776-1.379s.594-1.393,1.736-1.393h2.276Z" transform="translate(201.037 27.594)" fill="#351a6e"/>
    <path id="Path_811" data-name="Path 811" d="M85.991,11.3a3.352,3.352,0,0,0-2.385-.879,3.481,3.481,0,0,0-2.579,1.087v-.97H79.119v9.68h1.948v-5.9a1.927,1.927,0,0,1,2-2.159,1.88,1.88,0,0,1,1.951,2.159v5.9h1.944V14.034a3.545,3.545,0,0,0-.974-2.732" transform="translate(209.464 27.594)" fill="#351a6e"/>
    <path id="Path_812" data-name="Path 812" d="M87.448,20.341a5.348,5.348,0,0,1-4.078-1.4l1.284-1.284a3.758,3.758,0,0,0,2.794,1.014c1.185,0,2.126-.419,2.126-1.339,0-.649-.365-1.072-1.3-1.149l-1.554-.135c-1.816-.153-2.871-.974-2.871-2.677,0-1.9,1.63-2.969,3.658-2.969A5.313,5.313,0,0,1,91.1,11.5l-1.222,1.247a3.671,3.671,0,0,0-2.4-.711c-1.167,0-1.758.518-1.758,1.247,0,.573.306,1.014,1.339,1.109l1.532.135c1.816.153,2.889,1.014,2.889,2.736,0,2.028-1.722,3.082-4.038,3.082" transform="translate(220.718 27.546)" fill="#351a6e"/>
    <path id="Path_813" data-name="Path 813" d="M84.791,10.756a2.919,2.919,0,0,1-.46,1.594,1.583,1.583,0,0,1-1.371.813h-.084v-.828h.084a.9.9,0,0,0,.784-.6h-.237a1.208,1.208,0,0,1-.883-.361,1.192,1.192,0,0,1-.361-.875,1.214,1.214,0,0,1,.361-.883,1.187,1.187,0,0,1,.883-.368,1.238,1.238,0,0,1,1.185.868,2.209,2.209,0,0,1,.1.642" transform="translate(217.787 24.478)" fill="#351a6e"/>
    <path id="Path_814" data-name="Path 814" d="M48.373,18.357c0-.168-.033-.543-.077-1.069-.088-1.109-.383-4.771-.383-4.771C30.85,27.917,15.433,50.319,6.4,74.5c-1.306,3.487,1.266,7.5,1.379,7.63l.285.35.15-.423C17.752,59.7,32.433,38.9,48.227,24.229c.449-.419.434-2.032.212-4.9-.036-.456-.066-.813-.066-.974" transform="translate(15.961 33.137)" fill="#f36a10"/>
    <path id="Path_815" data-name="Path 815" d="M30.928,27.921c0-.237-.044-.689-.095-1.262-.12-1.247-.412-4.581-.412-4.581v0c-8.116,9.359-16.3,20.794-21.972,35.544a7.325,7.325,0,0,0,1.306,7.08A104.558,104.558,0,0,1,30.812,33.764c.551-.569.4-2.469.2-4.672-.047-.511-.088-.945-.088-1.171" transform="translate(21.194 58.45)" fill="#f36a10"/>
    <path id="Path_816" data-name="Path 816" d="M21.146,20.489c.394-.664.4-2.477.212-4.727-.044-.489-.08-.912-.08-1.12,0-.226-.044-.675-.095-1.24-.109-1.167-.412-4.61-.412-4.61C9.667,26.942,2.927,45.978.14,59.663c-.748,3.677,1.725,7.751,1.813,7.9l.306.529.16-.587c3.447-13.43,9.99-32.451,18.726-47.012" transform="translate(-0.001 23.276)" fill="#f36a10"/>
    <path id="Path_817" data-name="Path 817" d="M82.549,6.675c-.026-.387-.04-.675-.04-.781s-.022-.441-.055-.894c-.069-1.043-.39-5-.39-5C70.269,6.981,59.95,16.574,52.276,24.153,30.727,45.436,9.622,80.069,4.272,99.7c-.967,3.556,1.39,7.361,1.5,7.528l.277.4.171-.463c8.834-24.445,25.255-50.025,45.728-70.629C63.123,25.3,72.774,17.442,82.323,11.789c.35-.208.481-1.054.226-5.114" transform="translate(10.694 -0.001)" fill="#f36a10"/>
    <path id="Path_818" data-name="Path 818" d="M2.216,84.984C1.2,89.036,3.9,92.848,4.01,93.016l.277.409.175-.463C9.755,70.547,27.686,41.087,52.135,14.045c.427-.471.438-2.032.212-4.858-.036-.463-.066-.832-.066-1s-.036-.573-.08-1.112c-.095-1.1-.412-4.753-.412-4.753v0C20.8,34.5,6.593,65.32,2.216,84.984" transform="translate(5.261 6.136)" fill="#f36a10"/>
  </g>
</svg>
